<svg width="264" height="264"><rect x="0" y="0" width="10" height="10" fill="rgb(0, 0, 0)"></rect>
<rect x="12" y="0" width="10" height="10" fill="rgb(0, 0, 0)"></rect>
<rect x="24" y="0" width="10" height="10" fill="rgb(0, 0, 0)"></rect>
<rect x="36" y="0" width="10" height="10" fill="rgb(0, 0, 0)"></rect>
<rect x="48" y="0" width="10" height="10" fill="rgb(0, 0, 0)"></rect>
<rect x="60" y="0" width="10" height="10" fill="rgb(0, 0, 0)"></rect>
<rect x="72" y="0" width="10" height="10" fill="rgb(0, 0, 0)"></rect>
<rect x="84" y="0" width="10" height="10" fill="rgb(0, 0, 0)"></rect>
<rect x="96" y="0" width="10" height="10" fill="rgb(0, 0, 0)"></rect>
<rect x="108" y="0" width="10" height="10" fill="rgb(0, 0, 0)"></rect>
<rect x="120" y="0" width="10" height="10" fill="rgb(0, 0, 0)"></rect>
<rect x="132" y="0" width="10" height="10" fill="rgb(0, 0, 0)"></rect>
<rect x="144" y="0" width="10" height="10" fill="rgb(0, 0, 0)"></rect>
<rect x="156" y="0" width="10" height="10" fill="rgb(0, 0, 0)"></rect>
<rect x="168" y="0" width="10" height="10" fill="rgb(0, 0, 0)"></rect>
<rect x="180" y="0" width="10" height="10" fill="rgb(0, 0, 0)"></rect>
<rect x="192" y="0" width="10" height="10" fill="rgb(0, 0, 0)"></rect>
<rect x="204" y="0" width="10" height="10" fill="rgb(0, 0, 0)"></rect>
<rect x="216" y="0" width="10" height="10" fill="rgb(0, 0, 0)"></rect>
<rect x="228" y="0" width="10" height="10" fill="rgb(0, 0, 0)"></rect>
<rect x="240" y="0" width="10" height="10" fill="rgb(0, 0, 0)"></rect>
<rect x="252" y="0" width="10" height="10" fill="rgb(0, 0, 0)"></rect>
<rect x="0" y="12" width="10" height="10" fill="rgb(0, 0, 0)"></rect>
<rect x="12" y="12" width="10" height="10" fill="rgb(0, 0, 0)"></rect>
<rect x="24" y="12" width="10" height="10" fill="rgb(0, 0, 0)"></rect>
<rect x="36" y="12" width="10" height="10" fill="rgb(0, 0, 0)"></rect>
<rect x="48" y="12" width="10" height="10" fill="rgb(0, 0, 0)"></rect>
<rect x="60" y="12" width="10" height="10" fill="rgb(0, 0, 0)"></rect>
<rect x="72" y="12" width="10" height="10" fill="rgb(0, 0, 0)"></rect>
<rect x="84" y="12" width="10" height="10" fill="rgb(0, 0, 0)"></rect>
<rect x="96" y="12" width="10" height="10" fill="rgb(0, 0, 0)"></rect>
<rect x="108" y="12" width="10" height="10" fill="rgb(0, 0, 0)"></rect>
<rect x="120" y="12" width="10" height="10" fill="rgb(0, 0, 0)"></rect>
<rect x="132" y="12" width="10" height="10" fill="rgb(0, 0, 0)"></rect>
<rect x="144" y="12" width="10" height="10" fill="rgb(0, 0, 0)"></rect>
<rect x="156" y="12" width="10" height="10" fill="rgb(0, 0, 0)"></rect>
<rect x="168" y="12" width="10" height="10" fill="rgb(0, 0, 0)"></rect>
<rect x="180" y="12" width="10" height="10" fill="rgb(0, 0, 0)"></rect>
<rect x="192" y="12" width="10" height="10" fill="rgb(0, 0, 0)"></rect>
<rect x="204" y="12" width="10" height="10" fill="rgb(0, 0, 0)"></rect>
<rect x="216" y="12" width="10" height="10" fill="rgb(0, 0, 0)"></rect>
<rect x="228" y="12" width="10" height="10" fill="rgb(0, 0, 0)"></rect>
<rect x="240" y="12" width="10" height="10" fill="rgb(0, 0, 0)"></rect>
<rect x="252" y="12" width="10" height="10" fill="rgb(0, 0, 0)"></rect>
<rect x="0" y="24" width="10" height="10" fill="rgb(0, 0, 0)"></rect>
<rect x="12" y="24" width="10" height="10" fill="rgb(0, 0, 0)"></rect>
<rect x="24" y="24" width="10" height="10" fill="rgb(0, 0, 0)"></rect>
<rect x="36" y="24" width="10" height="10" fill="rgb(0, 0, 0)"></rect>
<rect x="48" y="24" width="10" height="10" fill="rgb(0, 0, 0)"></rect>
<rect x="60" y="24" width="10" height="10" fill="rgb(0, 0, 0)"></rect>
<rect x="72" y="24" width="10" height="10" fill="rgb(0, 0, 0)"></rect>
<rect x="84" y="24" width="10" height="10" fill="rgb(0, 0, 0)"></rect>
<rect x="96" y="24" width="10" height="10" fill="rgb(0, 0, 0)"></rect>
<rect x="108" y="24" width="10" height="10" fill="rgb(0, 0, 0)"></rect>
<rect x="120" y="24" width="10" height="10" fill="rgb(0, 0, 0)"></rect>
<rect x="132" y="24" width="10" height="10" fill="rgb(0, 0, 0)"></rect>
<rect x="144" y="24" width="10" height="10" fill="rgb(0, 0, 0)"></rect>
<rect x="156" y="24" width="10" height="10" fill="rgb(0, 0, 0)"></rect>
<rect x="168" y="24" width="10" height="10" fill="rgb(0, 0, 0)"></rect>
<rect x="180" y="24" width="10" height="10" fill="rgb(0, 0, 0)"></rect>
<rect x="192" y="24" width="10" height="10" fill="rgb(0, 0, 0)"></rect>
<rect x="204" y="24" width="10" height="10" fill="rgb(0, 0, 0)"></rect>
<rect x="216" y="24" width="10" height="10" fill="rgb(0, 0, 0)"></rect>
<rect x="228" y="24" width="10" height="10" fill="rgb(0, 0, 0)"></rect>
<rect x="240" y="24" width="10" height="10" fill="rgb(0, 0, 0)"></rect>
<rect x="252" y="24" width="10" height="10" fill="rgb(0, 0, 0)"></rect>
<rect x="0" y="36" width="10" height="10" fill="rgb(0, 0, 0)"></rect>
<rect x="12" y="36" width="10" height="10" fill="rgb(0, 0, 0)"></rect>
<rect x="24" y="36" width="10" height="10" fill="rgb(0, 0, 0)"></rect>
<rect x="36" y="36" width="10" height="10" fill="rgb(0, 0, 0)"></rect>
<rect x="48" y="36" width="10" height="10" fill="rgb(0, 0, 0)"></rect>
<rect x="60" y="36" width="10" height="10" fill="rgb(0, 0, 0)"></rect>
<rect x="72" y="36" width="10" height="10" fill="rgb(0, 0, 0)"></rect>
<rect x="84" y="36" width="10" height="10" fill="rgb(0, 0, 0)"></rect>
<rect x="96" y="36" width="10" height="10" fill="rgb(0, 0, 0)"></rect>
<rect x="108" y="36" width="10" height="10" fill="rgb(0, 0, 0)"></rect>
<rect x="120" y="36" width="10" height="10" fill="rgb(0, 0, 0)"></rect>
<rect x="132" y="36" width="10" height="10" fill="rgb(0, 0, 0)"></rect>
<rect x="144" y="36" width="10" height="10" fill="rgb(0, 0, 0)"></rect>
<rect x="156" y="36" width="10" height="10" fill="rgb(0, 0, 0)"></rect>
<rect x="168" y="36" width="10" height="10" fill="rgb(0, 0, 0)"></rect>
<rect x="180" y="36" width="10" height="10" fill="rgb(0, 0, 0)"></rect>
<rect x="192" y="36" width="10" height="10" fill="rgb(0, 0, 0)"></rect>
<rect x="204" y="36" width="10" height="10" fill="rgb(0, 0, 0)"></rect>
<rect x="216" y="36" width="10" height="10" fill="rgb(0, 0, 0)"></rect>
<rect x="228" y="36" width="10" height="10" fill="rgb(0, 0, 0)"></rect>
<rect x="240" y="36" width="10" height="10" fill="rgb(0, 0, 0)"></rect>
<rect x="252" y="36" width="10" height="10" fill="rgb(0, 0, 0)"></rect>
<rect x="0" y="48" width="10" height="10" fill="rgb(0, 0, 0)"></rect>
<rect x="12" y="48" width="10" height="10" fill="rgb(0, 0, 0)"></rect>
<rect x="24" y="48" width="10" height="10" fill="rgb(0, 0, 0)"></rect>
<rect x="36" y="48" width="10" height="10" fill="rgb(0, 0, 0)"></rect>
<rect x="48" y="48" width="10" height="10" fill="rgb(0, 0, 0)"></rect>
<rect x="60" y="48" width="10" height="10" fill="rgb(0, 0, 0)"></rect>
<rect x="72" y="48" width="10" height="10" fill="rgb(0, 0, 0)"></rect>
<rect x="84" y="48" width="10" height="10" fill="rgb(0, 0, 0)"></rect>
<rect x="96" y="48" width="10" height="10" fill="rgb(0, 0, 0)"></rect>
<rect x="108" y="48" width="10" height="10" fill="rgb(0, 0, 0)"></rect>
<rect x="120" y="48" width="10" height="10" fill="rgb(0, 0, 0)"></rect>
<rect x="132" y="48" width="10" height="10" fill="rgb(0, 0, 0)"></rect>
<rect x="144" y="48" width="10" height="10" fill="rgb(0, 0, 0)"></rect>
<rect x="156" y="48" width="10" height="10" fill="rgb(0, 0, 0)"></rect>
<rect x="168" y="48" width="10" height="10" fill="rgb(0, 0, 0)"></rect>
<rect x="180" y="48" width="10" height="10" fill="rgb(0, 0, 0)"></rect>
<rect x="192" y="48" width="10" height="10" fill="rgb(0, 0, 0)"></rect>
<rect x="204" y="48" width="10" height="10" fill="rgb(0, 0, 0)"></rect>
<rect x="216" y="48" width="10" height="10" fill="rgb(0, 0, 0)"></rect>
<rect x="228" y="48" width="10" height="10" fill="rgb(0, 0, 0)"></rect>
<rect x="240" y="48" width="10" height="10" fill="rgb(0, 0, 0)"></rect>
<rect x="252" y="48" width="10" height="10" fill="rgb(0, 0, 0)"></rect>
<rect x="0" y="60" width="10" height="10" fill="rgb(0, 0, 0)"></rect>
<rect x="12" y="60" width="10" height="10" fill="rgb(0, 0, 0)"></rect>
<rect x="24" y="60" width="10" height="10" fill="rgb(0, 0, 0)"></rect>
<rect x="36" y="60" width="10" height="10" fill="rgb(0, 0, 0)"></rect>
<rect x="48" y="60" width="10" height="10" fill="rgb(0, 0, 0)"></rect>
<rect x="60" y="60" width="10" height="10" fill="rgb(0, 0, 0)"></rect>
<rect x="72" y="60" width="10" height="10" fill="rgb(0, 0, 0)"></rect>
<rect x="84" y="60" width="10" height="10" fill="rgb(0, 0, 0)"></rect>
<rect x="96" y="60" width="10" height="10" fill="rgb(0, 0, 0)"></rect>
<rect x="108" y="60" width="10" height="10" fill="rgb(0, 0, 0)"></rect>
<rect x="120" y="60" width="10" height="10" fill="rgb(0, 0, 0)"></rect>
<rect x="132" y="60" width="10" height="10" fill="rgb(0, 0, 0)"></rect>
<rect x="144" y="60" width="10" height="10" fill="rgb(0, 0, 0)"></rect>
<rect x="156" y="60" width="10" height="10" fill="rgb(0, 0, 0)"></rect>
<rect x="168" y="60" width="10" height="10" fill="rgb(0, 0, 0)"></rect>
<rect x="180" y="60" width="10" height="10" fill="rgb(0, 0, 0)"></rect>
<rect x="192" y="60" width="10" height="10" fill="rgb(0, 0, 0)"></rect>
<rect x="204" y="60" width="10" height="10" fill="rgb(0, 0, 0)"></rect>
<rect x="216" y="60" width="10" height="10" fill="rgb(0, 0, 0)"></rect>
<rect x="228" y="60" width="10" height="10" fill="rgb(0, 0, 0)"></rect>
<rect x="240" y="60" width="10" height="10" fill="rgb(0, 0, 0)"></rect>
<rect x="252" y="60" width="10" height="10" fill="rgb(0, 0, 0)"></rect>
<rect x="0" y="72" width="10" height="10" fill="rgb(0, 0, 0)"></rect>
<rect x="12" y="72" width="10" height="10" fill="rgb(0, 0, 0)"></rect>
<rect x="24" y="72" width="10" height="10" fill="rgb(0, 0, 0)"></rect>
<rect x="36" y="72" width="10" height="10" fill="rgb(0, 0, 0)"></rect>
<rect x="48" y="72" width="10" height="10" fill="rgb(0, 0, 0)"></rect>
<rect x="60" y="72" width="10" height="10" fill="rgb(0, 0, 0)"></rect>
<rect x="72" y="72" width="10" height="10" fill="rgb(0, 0, 0)"></rect>
<rect x="84" y="72" width="10" height="10" fill="rgb(0, 0, 0)"></rect>
<rect x="96" y="72" width="10" height="10" fill="rgb(0, 0, 0)"></rect>
<rect x="108" y="72" width="10" height="10" fill="rgb(0, 0, 0)"></rect>
<rect x="120" y="72" width="10" height="10" fill="rgb(0, 0, 0)"></rect>
<rect x="132" y="72" width="10" height="10" fill="rgb(0, 0, 0)"></rect>
<rect x="144" y="72" width="10" height="10" fill="rgb(0, 0, 0)"></rect>
<rect x="156" y="72" width="10" height="10" fill="rgb(0, 0, 0)"></rect>
<rect x="168" y="72" width="10" height="10" fill="rgb(0, 0, 0)"></rect>
<rect x="180" y="72" width="10" height="10" fill="rgb(0, 0, 0)"></rect>
<rect x="192" y="72" width="10" height="10" fill="rgb(0, 0, 0)"></rect>
<rect x="204" y="72" width="10" height="10" fill="rgb(0, 0, 0)"></rect>
<rect x="216" y="72" width="10" height="10" fill="rgb(0, 0, 0)"></rect>
<rect x="228" y="72" width="10" height="10" fill="rgb(0, 0, 0)"></rect>
<rect x="240" y="72" width="10" height="10" fill="rgb(0, 0, 0)"></rect>
<rect x="252" y="72" width="10" height="10" fill="rgb(0, 0, 0)"></rect>
<rect x="0" y="84" width="10" height="10" fill="rgb(0, 0, 0)"></rect>
<rect x="12" y="84" width="10" height="10" fill="rgb(0, 0, 0)"></rect>
<rect x="24" y="84" width="10" height="10" fill="rgb(0, 0, 0)"></rect>
<rect x="36" y="84" width="10" height="10" fill="rgb(0, 0, 0)"></rect>
<rect x="48" y="84" width="10" height="10" fill="rgb(0, 0, 0)"></rect>
<rect x="60" y="84" width="10" height="10" fill="rgb(0, 0, 0)"></rect>
<rect x="72" y="84" width="10" height="10" fill="rgb(0, 0, 0)"></rect>
<rect x="84" y="84" width="10" height="10" fill="rgb(0, 0, 0)"></rect>
<rect x="96" y="84" width="10" height="10" fill="rgb(0, 0, 0)"></rect>
<rect x="108" y="84" width="10" height="10" fill="rgb(0, 0, 0)"></rect>
<rect x="120" y="84" width="10" height="10" fill="rgb(0, 0, 0)"></rect>
<rect x="132" y="84" width="10" height="10" fill="rgb(0, 0, 0)"></rect>
<rect x="144" y="84" width="10" height="10" fill="rgb(0, 0, 0)"></rect>
<rect x="156" y="84" width="10" height="10" fill="rgb(0, 0, 0)"></rect>
<rect x="168" y="84" width="10" height="10" fill="rgb(0, 0, 0)"></rect>
<rect x="180" y="84" width="10" height="10" fill="rgb(0, 0, 0)"></rect>
<rect x="192" y="84" width="10" height="10" fill="rgb(0, 0, 0)"></rect>
<rect x="204" y="84" width="10" height="10" fill="rgb(0, 0, 0)"></rect>
<rect x="216" y="84" width="10" height="10" fill="rgb(0, 0, 0)"></rect>
<rect x="228" y="84" width="10" height="10" fill="rgb(0, 0, 0)"></rect>
<rect x="240" y="84" width="10" height="10" fill="rgb(0, 0, 0)"></rect>
<rect x="252" y="84" width="10" height="10" fill="rgb(0, 0, 0)"></rect>
<rect x="0" y="96" width="10" height="10" fill="rgb(0, 0, 0)"></rect>
<rect x="12" y="96" width="10" height="10" fill="rgb(0, 0, 0)"></rect>
<rect x="24" y="96" width="10" height="10" fill="rgb(0, 0, 0)"></rect>
<rect x="36" y="96" width="10" height="10" fill="rgb(0, 0, 0)"></rect>
<rect x="48" y="96" width="10" height="10" fill="rgb(0, 0, 0)"></rect>
<rect x="60" y="96" width="10" height="10" fill="rgb(0, 0, 0)"></rect>
<rect x="72" y="96" width="10" height="10" fill="rgb(0, 0, 0)"></rect>
<rect x="84" y="96" width="10" height="10" fill="rgb(0, 0, 0)"></rect>
<rect x="96" y="96" width="10" height="10" fill="rgb(0, 0, 0)"></rect>
<rect x="108" y="96" width="10" height="10" fill="rgb(0, 0, 0)"></rect>
<rect x="120" y="96" width="10" height="10" fill="rgb(0, 0, 0)"></rect>
<rect x="132" y="96" width="10" height="10" fill="rgb(0, 0, 0)"></rect>
<rect x="144" y="96" width="10" height="10" fill="rgb(0, 0, 0)"></rect>
<rect x="156" y="96" width="10" height="10" fill="rgb(0, 0, 0)"></rect>
<rect x="168" y="96" width="10" height="10" fill="rgb(0, 0, 0)"></rect>
<rect x="180" y="96" width="10" height="10" fill="rgb(0, 0, 0)"></rect>
<rect x="192" y="96" width="10" height="10" fill="rgb(0, 0, 0)"></rect>
<rect x="204" y="96" width="10" height="10" fill="rgb(0, 0, 0)"></rect>
<rect x="216" y="96" width="10" height="10" fill="rgb(0, 0, 0)"></rect>
<rect x="228" y="96" width="10" height="10" fill="rgb(0, 0, 0)"></rect>
<rect x="240" y="96" width="10" height="10" fill="rgb(0, 0, 0)"></rect>
<rect x="252" y="96" width="10" height="10" fill="rgb(0, 0, 0)"></rect>
<rect x="0" y="108" width="10" height="10" fill="rgb(0, 0, 0)"></rect>
<rect x="12" y="108" width="10" height="10" fill="rgb(0, 0, 0)"></rect>
<rect x="24" y="108" width="10" height="10" fill="rgb(0, 0, 0)"></rect>
<rect x="36" y="108" width="10" height="10" fill="rgb(0, 0, 0)"></rect>
<rect x="48" y="108" width="10" height="10" fill="rgb(0, 0, 0)"></rect>
<rect x="60" y="108" width="10" height="10" fill="rgb(0, 0, 0)"></rect>
<rect x="72" y="108" width="10" height="10" fill="rgb(0, 0, 0)"></rect>
<rect x="84" y="108" width="10" height="10" fill="rgb(0, 0, 0)"></rect>
<rect x="96" y="108" width="10" height="10" fill="rgb(0, 0, 0)"></rect>
<rect x="108" y="108" width="10" height="10" fill="rgb(0, 0, 0)"></rect>
<rect x="120" y="108" width="10" height="10" fill="rgb(0, 0, 0)"></rect>
<rect x="132" y="108" width="10" height="10" fill="rgb(0, 0, 0)"></rect>
<rect x="144" y="108" width="10" height="10" fill="rgb(0, 0, 0)"></rect>
<rect x="156" y="108" width="10" height="10" fill="rgb(0, 0, 0)"></rect>
<rect x="168" y="108" width="10" height="10" fill="rgb(0, 0, 0)"></rect>
<rect x="180" y="108" width="10" height="10" fill="rgb(0, 0, 0)"></rect>
<rect x="192" y="108" width="10" height="10" fill="rgb(0, 0, 0)"></rect>
<rect x="204" y="108" width="10" height="10" fill="rgb(0, 0, 0)"></rect>
<rect x="216" y="108" width="10" height="10" fill="rgb(0, 0, 0)"></rect>
<rect x="228" y="108" width="10" height="10" fill="rgb(0, 0, 0)"></rect>
<rect x="240" y="108" width="10" height="10" fill="rgb(0, 0, 0)"></rect>
<rect x="252" y="108" width="10" height="10" fill="rgb(0, 0, 0)"></rect>
<rect x="0" y="120" width="10" height="10" fill="rgb(0, 0, 0)"></rect>
<rect x="12" y="120" width="10" height="10" fill="rgb(0, 0, 0)"></rect>
<rect x="24" y="120" width="10" height="10" fill="rgb(0, 0, 0)"></rect>
<rect x="36" y="120" width="10" height="10" fill="rgb(0, 0, 0)"></rect>
<rect x="48" y="120" width="10" height="10" fill="rgb(0, 0, 0)"></rect>
<rect x="60" y="120" width="10" height="10" fill="rgb(0, 0, 0)"></rect>
<rect x="72" y="120" width="10" height="10" fill="rgb(0, 0, 0)"></rect>
<rect x="84" y="120" width="10" height="10" fill="rgb(0, 0, 0)"></rect>
<rect x="96" y="120" width="10" height="10" fill="rgb(0, 0, 0)"></rect>
<rect x="108" y="120" width="10" height="10" fill="rgb(0, 0, 0)"></rect>
<rect x="120" y="120" width="10" height="10" fill="rgb(0, 0, 0)"></rect>
<rect x="132" y="120" width="10" height="10" fill="rgb(0, 0, 0)"></rect>
<rect x="144" y="120" width="10" height="10" fill="rgb(0, 0, 0)"></rect>
<rect x="156" y="120" width="10" height="10" fill="rgb(0, 0, 0)"></rect>
<rect x="168" y="120" width="10" height="10" fill="rgb(0, 0, 0)"></rect>
<rect x="180" y="120" width="10" height="10" fill="rgb(0, 0, 0)"></rect>
<rect x="192" y="120" width="10" height="10" fill="rgb(0, 0, 0)"></rect>
<rect x="204" y="120" width="10" height="10" fill="rgb(0, 0, 0)"></rect>
<rect x="216" y="120" width="10" height="10" fill="rgb(0, 0, 0)"></rect>
<rect x="228" y="120" width="10" height="10" fill="rgb(0, 0, 0)"></rect>
<rect x="240" y="120" width="10" height="10" fill="rgb(0, 0, 0)"></rect>
<rect x="252" y="120" width="10" height="10" fill="rgb(0, 0, 0)"></rect>
<rect x="0" y="132" width="10" height="10" fill="rgb(0, 0, 0)"></rect>
<rect x="12" y="132" width="10" height="10" fill="rgb(0, 0, 0)"></rect>
<rect x="24" y="132" width="10" height="10" fill="rgb(0, 0, 0)"></rect>
<rect x="36" y="132" width="10" height="10" fill="rgb(0, 0, 0)"></rect>
<rect x="48" y="132" width="10" height="10" fill="rgb(0, 0, 0)"></rect>
<rect x="60" y="132" width="10" height="10" fill="rgb(0, 0, 0)"></rect>
<rect x="72" y="132" width="10" height="10" fill="rgb(0, 0, 0)"></rect>
<rect x="84" y="132" width="10" height="10" fill="rgb(0, 0, 0)"></rect>
<rect x="96" y="132" width="10" height="10" fill="rgb(0, 0, 0)"></rect>
<rect x="108" y="132" width="10" height="10" fill="rgb(0, 0, 0)"></rect>
<rect x="120" y="132" width="10" height="10" fill="rgb(0, 0, 0)"></rect>
<rect x="132" y="132" width="10" height="10" fill="rgb(0, 0, 0)"></rect>
<rect x="144" y="132" width="10" height="10" fill="rgb(0, 0, 0)"></rect>
<rect x="156" y="132" width="10" height="10" fill="rgb(0, 0, 0)"></rect>
<rect x="168" y="132" width="10" height="10" fill="rgb(0, 0, 0)"></rect>
<rect x="180" y="132" width="10" height="10" fill="rgb(0, 0, 0)"></rect>
<rect x="192" y="132" width="10" height="10" fill="rgb(0, 0, 0)"></rect>
<rect x="204" y="132" width="10" height="10" fill="rgb(0, 0, 0)"></rect>
<rect x="216" y="132" width="10" height="10" fill="rgb(0, 0, 0)"></rect>
<rect x="228" y="132" width="10" height="10" fill="rgb(0, 0, 0)"></rect>
<rect x="240" y="132" width="10" height="10" fill="rgb(0, 0, 0)"></rect>
<rect x="252" y="132" width="10" height="10" fill="rgb(0, 0, 0)"></rect>
<rect x="0" y="144" width="10" height="10" fill="rgb(0, 0, 0)"></rect>
<rect x="12" y="144" width="10" height="10" fill="rgb(0, 0, 0)"></rect>
<rect x="24" y="144" width="10" height="10" fill="rgb(0, 0, 0)"></rect>
<rect x="36" y="144" width="10" height="10" fill="rgb(0, 0, 0)"></rect>
<rect x="48" y="144" width="10" height="10" fill="rgb(0, 0, 0)"></rect>
<rect x="60" y="144" width="10" height="10" fill="rgb(0, 0, 0)"></rect>
<rect x="72" y="144" width="10" height="10" fill="rgb(0, 0, 0)"></rect>
<rect x="84" y="144" width="10" height="10" fill="rgb(0, 0, 0)"></rect>
<rect x="96" y="144" width="10" height="10" fill="rgb(0, 0, 0)"></rect>
<rect x="108" y="144" width="10" height="10" fill="rgb(0, 0, 0)"></rect>
<rect x="120" y="144" width="10" height="10" fill="rgb(0, 0, 0)"></rect>
<rect x="132" y="144" width="10" height="10" fill="rgb(0, 0, 0)"></rect>
<rect x="144" y="144" width="10" height="10" fill="rgb(0, 0, 0)"></rect>
<rect x="156" y="144" width="10" height="10" fill="rgb(0, 0, 0)"></rect>
<rect x="168" y="144" width="10" height="10" fill="rgb(0, 0, 0)"></rect>
<rect x="180" y="144" width="10" height="10" fill="rgb(0, 0, 0)"></rect>
<rect x="192" y="144" width="10" height="10" fill="rgb(0, 0, 0)"></rect>
<rect x="204" y="144" width="10" height="10" fill="rgb(0, 0, 0)"></rect>
<rect x="216" y="144" width="10" height="10" fill="rgb(0, 0, 0)"></rect>
<rect x="228" y="144" width="10" height="10" fill="rgb(0, 0, 0)"></rect>
<rect x="240" y="144" width="10" height="10" fill="rgb(0, 0, 0)"></rect>
<rect x="252" y="144" width="10" height="10" fill="rgb(0, 0, 0)"></rect>
<rect x="0" y="156" width="10" height="10" fill="rgb(0, 0, 0)"></rect>
<rect x="12" y="156" width="10" height="10" fill="rgb(0, 0, 0)"></rect>
<rect x="24" y="156" width="10" height="10" fill="rgb(0, 0, 0)"></rect>
<rect x="36" y="156" width="10" height="10" fill="rgb(0, 0, 0)"></rect>
<rect x="48" y="156" width="10" height="10" fill="rgb(0, 0, 0)"></rect>
<rect x="60" y="156" width="10" height="10" fill="rgb(0, 0, 0)"></rect>
<rect x="72" y="156" width="10" height="10" fill="rgb(0, 0, 0)"></rect>
<rect x="84" y="156" width="10" height="10" fill="rgb(0, 0, 0)"></rect>
<rect x="96" y="156" width="10" height="10" fill="rgb(0, 0, 0)"></rect>
<rect x="108" y="156" width="10" height="10" fill="rgb(0, 0, 0)"></rect>
<rect x="120" y="156" width="10" height="10" fill="rgb(0, 0, 0)"></rect>
<rect x="132" y="156" width="10" height="10" fill="rgb(0, 0, 0)"></rect>
<rect x="144" y="156" width="10" height="10" fill="rgb(0, 0, 0)"></rect>
<rect x="156" y="156" width="10" height="10" fill="rgb(0, 0, 0)"></rect>
<rect x="168" y="156" width="10" height="10" fill="rgb(0, 0, 0)"></rect>
<rect x="180" y="156" width="10" height="10" fill="rgb(0, 0, 0)"></rect>
<rect x="192" y="156" width="10" height="10" fill="rgb(0, 0, 0)"></rect>
<rect x="204" y="156" width="10" height="10" fill="rgb(0, 0, 0)"></rect>
<rect x="216" y="156" width="10" height="10" fill="rgb(0, 0, 0)"></rect>
<rect x="228" y="156" width="10" height="10" fill="rgb(0, 0, 0)"></rect>
<rect x="240" y="156" width="10" height="10" fill="rgb(0, 0, 0)"></rect>
<rect x="252" y="156" width="10" height="10" fill="rgb(0, 0, 0)"></rect>
<rect x="0" y="168" width="10" height="10" fill="rgb(0, 0, 0)"></rect>
<rect x="12" y="168" width="10" height="10" fill="rgb(0, 0, 0)"></rect>
<rect x="24" y="168" width="10" height="10" fill="rgb(0, 0, 0)"></rect>
<rect x="36" y="168" width="10" height="10" fill="rgb(0, 0, 0)"></rect>
<rect x="48" y="168" width="10" height="10" fill="rgb(0, 0, 0)"></rect>
<rect x="60" y="168" width="10" height="10" fill="rgb(0, 0, 0)"></rect>
<rect x="72" y="168" width="10" height="10" fill="rgb(0, 0, 0)"></rect>
<rect x="84" y="168" width="10" height="10" fill="rgb(0, 0, 0)"></rect>
<rect x="96" y="168" width="10" height="10" fill="rgb(0, 0, 0)"></rect>
<rect x="108" y="168" width="10" height="10" fill="rgb(0, 0, 0)"></rect>
<rect x="120" y="168" width="10" height="10" fill="rgb(0, 0, 0)"></rect>
<rect x="132" y="168" width="10" height="10" fill="rgb(0, 0, 0)"></rect>
<rect x="144" y="168" width="10" height="10" fill="rgb(0, 0, 0)"></rect>
<rect x="156" y="168" width="10" height="10" fill="rgb(0, 0, 0)"></rect>
<rect x="168" y="168" width="10" height="10" fill="rgb(0, 0, 0)"></rect>
<rect x="180" y="168" width="10" height="10" fill="rgb(0, 0, 0)"></rect>
<rect x="192" y="168" width="10" height="10" fill="rgb(0, 0, 0)"></rect>
<rect x="204" y="168" width="10" height="10" fill="rgb(0, 0, 0)"></rect>
<rect x="216" y="168" width="10" height="10" fill="rgb(0, 0, 0)"></rect>
<rect x="228" y="168" width="10" height="10" fill="rgb(0, 0, 0)"></rect>
<rect x="240" y="168" width="10" height="10" fill="rgb(0, 0, 0)"></rect>
<rect x="252" y="168" width="10" height="10" fill="rgb(0, 0, 0)"></rect>
<rect x="0" y="180" width="10" height="10" fill="rgb(0, 0, 0)"></rect>
<rect x="12" y="180" width="10" height="10" fill="rgb(0, 0, 0)"></rect>
<rect x="24" y="180" width="10" height="10" fill="rgb(0, 0, 0)"></rect>
<rect x="36" y="180" width="10" height="10" fill="rgb(0, 0, 0)"></rect>
<rect x="48" y="180" width="10" height="10" fill="rgb(0, 0, 0)"></rect>
<rect x="60" y="180" width="10" height="10" fill="rgb(0, 0, 0)"></rect>
<rect x="72" y="180" width="10" height="10" fill="rgb(0, 0, 0)"></rect>
<rect x="84" y="180" width="10" height="10" fill="rgb(0, 0, 0)"></rect>
<rect x="96" y="180" width="10" height="10" fill="rgb(0, 0, 0)"></rect>
<rect x="108" y="180" width="10" height="10" fill="rgb(0, 0, 0)"></rect>
<rect x="120" y="180" width="10" height="10" fill="rgb(0, 0, 0)"></rect>
<rect x="132" y="180" width="10" height="10" fill="rgb(0, 0, 0)"></rect>
<rect x="144" y="180" width="10" height="10" fill="rgb(0, 0, 0)"></rect>
<rect x="156" y="180" width="10" height="10" fill="rgb(0, 0, 0)"></rect>
<rect x="168" y="180" width="10" height="10" fill="rgb(0, 0, 0)"></rect>
<rect x="180" y="180" width="10" height="10" fill="rgb(0, 0, 0)"></rect>
<rect x="192" y="180" width="10" height="10" fill="rgb(0, 0, 0)"></rect>
<rect x="204" y="180" width="10" height="10" fill="rgb(0, 0, 0)"></rect>
<rect x="216" y="180" width="10" height="10" fill="rgb(0, 0, 0)"></rect>
<rect x="228" y="180" width="10" height="10" fill="rgb(0, 0, 0)"></rect>
<rect x="240" y="180" width="10" height="10" fill="rgb(0, 0, 0)"></rect>
<rect x="252" y="180" width="10" height="10" fill="rgb(0, 0, 0)"></rect>
<rect x="0" y="192" width="10" height="10" fill="rgb(0, 0, 0)"></rect>
<rect x="12" y="192" width="10" height="10" fill="rgb(0, 0, 0)"></rect>
<rect x="24" y="192" width="10" height="10" fill="rgb(0, 0, 0)"></rect>
<rect x="36" y="192" width="10" height="10" fill="rgb(0, 0, 0)"></rect>
<rect x="48" y="192" width="10" height="10" fill="rgb(0, 0, 0)"></rect>
<rect x="60" y="192" width="10" height="10" fill="rgb(0, 0, 0)"></rect>
<rect x="72" y="192" width="10" height="10" fill="rgb(0, 0, 0)"></rect>
<rect x="84" y="192" width="10" height="10" fill="rgb(0, 0, 0)"></rect>
<rect x="96" y="192" width="10" height="10" fill="rgb(0, 0, 0)"></rect>
<rect x="108" y="192" width="10" height="10" fill="rgb(0, 0, 0)"></rect>
<rect x="120" y="192" width="10" height="10" fill="rgb(0, 0, 0)"></rect>
<rect x="132" y="192" width="10" height="10" fill="rgb(0, 0, 0)"></rect>
<rect x="144" y="192" width="10" height="10" fill="rgb(0, 0, 0)"></rect>
<rect x="156" y="192" width="10" height="10" fill="rgb(0, 0, 0)"></rect>
<rect x="168" y="192" width="10" height="10" fill="rgb(0, 0, 0)"></rect>
<rect x="180" y="192" width="10" height="10" fill="rgb(0, 0, 0)"></rect>
<rect x="192" y="192" width="10" height="10" fill="rgb(0, 0, 0)"></rect>
<rect x="204" y="192" width="10" height="10" fill="rgb(0, 0, 0)"></rect>
<rect x="216" y="192" width="10" height="10" fill="rgb(0, 0, 0)"></rect>
<rect x="228" y="192" width="10" height="10" fill="rgb(0, 0, 0)"></rect>
<rect x="240" y="192" width="10" height="10" fill="rgb(0, 0, 0)"></rect>
<rect x="252" y="192" width="10" height="10" fill="rgb(0, 0, 0)"></rect>
<rect x="0" y="204" width="10" height="10" fill="rgb(0, 0, 0)"></rect>
<rect x="12" y="204" width="10" height="10" fill="rgb(0, 0, 0)"></rect>
<rect x="24" y="204" width="10" height="10" fill="rgb(0, 0, 0)"></rect>
<rect x="36" y="204" width="10" height="10" fill="rgb(0, 0, 0)"></rect>
<rect x="48" y="204" width="10" height="10" fill="rgb(0, 0, 0)"></rect>
<rect x="60" y="204" width="10" height="10" fill="rgb(0, 0, 0)"></rect>
<rect x="72" y="204" width="10" height="10" fill="rgb(0, 0, 0)"></rect>
<rect x="84" y="204" width="10" height="10" fill="rgb(0, 0, 0)"></rect>
<rect x="96" y="204" width="10" height="10" fill="rgb(0, 0, 0)"></rect>
<rect x="108" y="204" width="10" height="10" fill="rgb(0, 0, 0)"></rect>
<rect x="120" y="204" width="10" height="10" fill="rgb(0, 0, 0)"></rect>
<rect x="132" y="204" width="10" height="10" fill="rgb(0, 0, 0)"></rect>
<rect x="144" y="204" width="10" height="10" fill="rgb(0, 0, 0)"></rect>
<rect x="156" y="204" width="10" height="10" fill="rgb(0, 0, 0)"></rect>
<rect x="168" y="204" width="10" height="10" fill="rgb(0, 0, 0)"></rect>
<rect x="180" y="204" width="10" height="10" fill="rgb(0, 0, 0)"></rect>
<rect x="192" y="204" width="10" height="10" fill="rgb(0, 0, 0)"></rect>
<rect x="204" y="204" width="10" height="10" fill="rgb(0, 0, 0)"></rect>
<rect x="216" y="204" width="10" height="10" fill="rgb(0, 0, 0)"></rect>
<rect x="228" y="204" width="10" height="10" fill="rgb(0, 0, 0)"></rect>
<rect x="240" y="204" width="10" height="10" fill="rgb(0, 0, 0)"></rect>
<rect x="252" y="204" width="10" height="10" fill="rgb(0, 0, 0)"></rect>
<rect x="0" y="216" width="10" height="10" fill="rgb(0, 0, 0)"></rect>
<rect x="12" y="216" width="10" height="10" fill="rgb(0, 0, 0)"></rect>
<rect x="24" y="216" width="10" height="10" fill="rgb(0, 0, 0)"></rect>
<rect x="36" y="216" width="10" height="10" fill="rgb(0, 0, 0)"></rect>
<rect x="48" y="216" width="10" height="10" fill="rgb(0, 0, 0)"></rect>
<rect x="60" y="216" width="10" height="10" fill="rgb(0, 0, 0)"></rect>
<rect x="72" y="216" width="10" height="10" fill="rgb(0, 0, 0)"></rect>
<rect x="84" y="216" width="10" height="10" fill="rgb(0, 0, 0)"></rect>
<rect x="96" y="216" width="10" height="10" fill="rgb(0, 0, 0)"></rect>
<rect x="108" y="216" width="10" height="10" fill="rgb(0, 0, 0)"></rect>
<rect x="120" y="216" width="10" height="10" fill="rgb(0, 0, 0)"></rect>
<rect x="132" y="216" width="10" height="10" fill="rgb(0, 0, 0)"></rect>
<rect x="144" y="216" width="10" height="10" fill="rgb(0, 0, 0)"></rect>
<rect x="156" y="216" width="10" height="10" fill="rgb(0, 0, 0)"></rect>
<rect x="168" y="216" width="10" height="10" fill="rgb(0, 0, 0)"></rect>
<rect x="180" y="216" width="10" height="10" fill="rgb(0, 0, 0)"></rect>
<rect x="192" y="216" width="10" height="10" fill="rgb(0, 0, 0)"></rect>
<rect x="204" y="216" width="10" height="10" fill="rgb(0, 0, 0)"></rect>
<rect x="216" y="216" width="10" height="10" fill="rgb(0, 0, 0)"></rect>
<rect x="228" y="216" width="10" height="10" fill="rgb(0, 0, 0)"></rect>
<rect x="240" y="216" width="10" height="10" fill="rgb(0, 0, 0)"></rect>
<rect x="252" y="216" width="10" height="10" fill="rgb(0, 0, 0)"></rect>
<rect x="0" y="228" width="10" height="10" fill="rgb(0, 0, 0)"></rect>
<rect x="12" y="228" width="10" height="10" fill="rgb(0, 0, 0)"></rect>
<rect x="24" y="228" width="10" height="10" fill="rgb(0, 0, 0)"></rect>
<rect x="36" y="228" width="10" height="10" fill="rgb(0, 0, 0)"></rect>
<rect x="48" y="228" width="10" height="10" fill="rgb(0, 0, 0)"></rect>
<rect x="60" y="228" width="10" height="10" fill="rgb(0, 0, 0)"></rect>
<rect x="72" y="228" width="10" height="10" fill="rgb(0, 0, 0)"></rect>
<rect x="84" y="228" width="10" height="10" fill="rgb(0, 0, 0)"></rect>
<rect x="96" y="228" width="10" height="10" fill="rgb(0, 0, 0)"></rect>
<rect x="108" y="228" width="10" height="10" fill="rgb(0, 0, 0)"></rect>
<rect x="120" y="228" width="10" height="10" fill="rgb(0, 0, 0)"></rect>
<rect x="132" y="228" width="10" height="10" fill="rgb(0, 0, 0)"></rect>
<rect x="144" y="228" width="10" height="10" fill="rgb(0, 0, 0)"></rect>
<rect x="156" y="228" width="10" height="10" fill="rgb(0, 0, 0)"></rect>
<rect x="168" y="228" width="10" height="10" fill="rgb(0, 0, 0)"></rect>
<rect x="180" y="228" width="10" height="10" fill="rgb(0, 0, 0)"></rect>
<rect x="192" y="228" width="10" height="10" fill="rgb(0, 0, 0)"></rect>
<rect x="204" y="228" width="10" height="10" fill="rgb(0, 0, 0)"></rect>
<rect x="216" y="228" width="10" height="10" fill="rgb(0, 0, 0)"></rect>
<rect x="228" y="228" width="10" height="10" fill="rgb(0, 0, 0)"></rect>
<rect x="240" y="228" width="10" height="10" fill="rgb(0, 0, 0)"></rect>
<rect x="252" y="228" width="10" height="10" fill="rgb(0, 0, 0)"></rect>
<rect x="0" y="240" width="10" height="10" fill="rgb(0, 0, 0)"></rect>
<rect x="12" y="240" width="10" height="10" fill="rgb(0, 0, 0)"></rect>
<rect x="24" y="240" width="10" height="10" fill="rgb(0, 0, 0)"></rect>
<rect x="36" y="240" width="10" height="10" fill="rgb(0, 0, 0)"></rect>
<rect x="48" y="240" width="10" height="10" fill="rgb(0, 0, 0)"></rect>
<rect x="60" y="240" width="10" height="10" fill="rgb(0, 0, 0)"></rect>
<rect x="72" y="240" width="10" height="10" fill="rgb(0, 0, 0)"></rect>
<rect x="84" y="240" width="10" height="10" fill="rgb(0, 0, 0)"></rect>
<rect x="96" y="240" width="10" height="10" fill="rgb(0, 0, 0)"></rect>
<rect x="108" y="240" width="10" height="10" fill="rgb(0, 0, 0)"></rect>
<rect x="120" y="240" width="10" height="10" fill="rgb(0, 0, 0)"></rect>
<rect x="132" y="240" width="10" height="10" fill="rgb(0, 0, 0)"></rect>
<rect x="144" y="240" width="10" height="10" fill="rgb(0, 0, 0)"></rect>
<rect x="156" y="240" width="10" height="10" fill="rgb(0, 0, 0)"></rect>
<rect x="168" y="240" width="10" height="10" fill="rgb(0, 0, 0)"></rect>
<rect x="180" y="240" width="10" height="10" fill="rgb(0, 0, 0)"></rect>
<rect x="192" y="240" width="10" height="10" fill="rgb(0, 0, 0)"></rect>
<rect x="204" y="240" width="10" height="10" fill="rgb(0, 0, 0)"></rect>
<rect x="216" y="240" width="10" height="10" fill="rgb(0, 0, 0)"></rect>
<rect x="228" y="240" width="10" height="10" fill="rgb(0, 0, 0)"></rect>
<rect x="240" y="240" width="10" height="10" fill="rgb(0, 0, 0)"></rect>
<rect x="252" y="240" width="10" height="10" fill="rgb(0, 0, 0)"></rect>
<rect x="0" y="252" width="10" height="10" fill="rgb(0, 0, 0)"></rect>
<rect x="12" y="252" width="10" height="10" fill="rgb(0, 0, 0)"></rect>
<rect x="24" y="252" width="10" height="10" fill="rgb(0, 0, 0)"></rect>
<rect x="36" y="252" width="10" height="10" fill="rgb(0, 0, 0)"></rect>
<rect x="48" y="252" width="10" height="10" fill="rgb(0, 0, 0)"></rect>
<rect x="60" y="252" width="10" height="10" fill="rgb(0, 0, 0)"></rect>
<rect x="72" y="252" width="10" height="10" fill="rgb(0, 0, 0)"></rect>
<rect x="84" y="252" width="10" height="10" fill="rgb(0, 0, 0)"></rect>
<rect x="96" y="252" width="10" height="10" fill="rgb(0, 0, 0)"></rect>
<rect x="108" y="252" width="10" height="10" fill="rgb(0, 0, 0)"></rect>
<rect x="120" y="252" width="10" height="10" fill="rgb(0, 0, 0)"></rect>
<rect x="132" y="252" width="10" height="10" fill="rgb(0, 0, 0)"></rect>
<rect x="144" y="252" width="10" height="10" fill="rgb(0, 0, 0)"></rect>
<rect x="156" y="252" width="10" height="10" fill="rgb(0, 0, 0)"></rect>
<rect x="168" y="252" width="10" height="10" fill="rgb(0, 0, 0)"></rect>
<rect x="180" y="252" width="10" height="10" fill="rgb(0, 0, 0)"></rect>
<rect x="192" y="252" width="10" height="10" fill="rgb(0, 0, 0)"></rect>
<rect x="204" y="252" width="10" height="10" fill="rgb(0, 0, 0)"></rect>
<rect x="216" y="252" width="10" height="10" fill="rgb(0, 0, 0)"></rect>
<rect x="228" y="252" width="10" height="10" fill="rgb(0, 0, 0)"></rect>
<rect x="240" y="252" width="10" height="10" fill="rgb(0, 0, 0)"></rect>
<rect x="252" y="252" width="10" height="10" fill="rgb(0, 0, 0)"></rect></svg>